<svg width="465" height="550" viewBox="0 0 465 550" fill="none" xmlns="http://www.w3.org/2000/svg">
<path d="M185.722 147.603V92.2678C138.774 92.2678 4.1224 158.459 0.560104 320.871C-0.994671 391.756 44.5899 464.606 79.9747 493.889C135.261 542.067 195.25 550 232.669 550C278.539 550 320.259 537.001 357.615 513.56C419.877 474.491 464.277 405.203 464.277 320.871C464.276 163.628 341.754 102.951 280.493 92.2678V147.603C323.058 158.704 408.19 208.898 408.19 320.871C408.19 432.844 302.527 493.889 232.669 493.889C96.2579 493.889 58.3161 378.544 56.3965 320.871C56.3965 222.319 140.777 158.871 185.722 147.603Z" fill="#BDD747"/>
<path d="M220.023 0L189.263 30.7604L206.627 49.2012L220.399 35.43V317.616H245.688V0H220.023Z" fill="white"/>
</svg>
